<svg width="696" height="541" viewBox="0 0 696 541" fill="none" xmlns="http://www.w3.org/2000/svg">
<path opacity="0.1" d="M253.356 537.262C393.28 537.262 506.711 533.225 506.711 528.244C506.711 523.264 393.28 519.226 253.356 519.226C113.431 519.226 0 523.264 0 528.244C0 533.225 113.431 537.262 253.356 537.262Z" fill="#E63946"/>
<path opacity="0.1" d="M186.75 16.3724C202.89 2.00727 228.226 -0.920435 251.288 0.223874C323.724 3.81812 389.111 38.7445 445.671 78.2503C466.146 92.5519 486.305 107.965 499.596 127.659C526.652 167.751 518.627 223.291 481.005 256.32C468.205 267.557 452.688 276.172 436.758 283.808C408.434 297.386 377.872 308.286 345.725 311.389C322.8 313.601 299.593 311.802 276.803 308.716C213.127 300.091 150.626 281.02 98.2399 248.391C75.2638 234.08 53.6076 216.288 44.1372 193.137C34.6669 169.986 40.7278 140.648 64.1887 126.945C73.8919 121.277 85.4933 118.718 96.8516 116.314C113.57 112.776 130.557 109.289 145.645 102.096C161.228 94.6675 179.68 80.3014 176.595 63.8584C173.284 46.2155 170.628 30.7208 186.75 16.3724Z" fill="#E63946"/>
<path opacity="0.1" d="M628.24 541C665.663 541 696 538.319 696 535.013C696 531.706 665.663 529.025 628.24 529.025C590.818 529.025 560.481 531.706 560.481 535.013C560.481 538.319 590.818 541 628.24 541Z" fill="#E63946"/>
<path d="M353.399 203.75C352.296 201.618 346.464 188.364 346.464 188.364L336.692 163.074C336.692 163.074 329.756 152.41 329.756 150.429C329.756 148.449 317.147 140.527 317.147 140.527C317.147 140.527 306.902 137.48 306.114 137.175C305.326 136.871 293.19 132.861 293.19 132.861C293.19 132.861 288.411 126.584 287.73 128.224L287.729 128.228C287.704 128.186 287.679 128.15 287.654 128.108C286.678 126.286 286.059 124.294 285.832 122.24C285.806 122.057 285.784 121.864 285.761 121.674C288.908 119.543 291.489 116.678 293.277 113.326C295.066 109.975 296.01 106.239 296.027 102.441C296.024 101.441 295.957 100.442 295.825 99.451C295.912 99.397 296.002 99.3493 296.096 99.3085C296.292 99.2234 296.242 99.1542 296.098 99.082C296.148 99.0561 296.197 99.0286 296.247 99.0076C296.508 98.8943 296.333 98.8086 296.081 98.7067L296.096 98.6991C296.451 98.5448 296.002 98.4426 295.641 98.2794C295.621 98.174 295.603 98.0682 295.582 97.9633C295.662 97.7626 295.711 97.5509 295.727 97.3355C295.759 97.3514 295.788 97.3686 295.822 97.3834C295.91 96.9908 295.908 96.5834 295.816 96.1917C295.793 96.2713 295.766 96.3495 295.734 96.4258C295.756 96.0707 295.683 95.7161 295.522 95.3989C295.36 95.0817 295.117 94.8135 294.816 94.6223C294.798 94.6065 294.778 94.5896 294.76 94.5737L295.428 87.7391C305.285 87.2739 307.014 70.5264 304.766 69.596C302.518 68.6656 304.766 66.6497 304.766 62.6179C304.766 58.5861 297.33 54.0891 297.33 54.0891C297.33 54.0891 294.218 55.6398 289.376 47.8864C284.534 40.1329 266.724 38.8924 265.513 40.9083C264.303 42.9241 256.349 45.5604 245.974 48.5066C235.599 51.4529 237.501 63.7034 239.23 66.3396C240.654 68.519 241.489 71.0302 241.651 73.6279C241.651 75.1785 244.936 81.6914 244.936 81.6914C243.9 83.9482 246.537 96.3116 247.318 99.8254C247.306 99.9334 247.293 100.041 247.282 100.15C247.275 100.16 247.267 100.169 247.26 100.18C247.223 100.237 247.189 100.296 247.159 100.357C246.992 100.721 246.936 101.126 247 101.522C246.943 101.955 247.003 102.395 247.175 102.796C247.234 106.106 248.001 109.366 249.424 112.356C250.847 115.347 252.894 117.999 255.427 120.135C255.439 120.346 255.451 120.559 255.462 120.777C255.608 123.647 255.689 127.041 255.538 130.289C255.53 130.456 255.518 130.618 255.509 130.784C254.937 130.899 254.4 131.147 253.942 131.508C253.484 131.869 253.117 132.333 252.871 132.861C251.894 134.738 246.22 137.633 246.22 137.633C246.22 137.633 236.29 138.09 235.344 139.918C234.399 141.746 220.056 147.84 220.056 147.84C220.056 147.84 212.49 152.258 213.593 157.285C214.17 159.912 212.551 163.993 210.875 167.293C207.367 165.965 203.715 165.055 199.994 164.583L208.029 172.261C207.861 172.523 207.762 172.672 207.762 172.672L203.191 188.821C203.191 188.821 201.615 194.457 200.038 195.828C198.462 197.2 201.457 209.692 201.457 209.692C201.457 209.692 199.723 218.528 198.305 220.813C196.886 223.098 200.511 228.735 200.511 228.735L207.762 245.188L226.991 250.063C226.991 250.063 228.272 250.334 230.343 250.777C230.278 251.17 230.211 251.562 230.143 251.952C229.216 257.193 227.999 262.013 226.518 263.317C222.893 266.517 223.05 280.837 223.05 280.837L223.208 301.099C223.208 301.099 224.469 326.084 223.838 326.998C223.44 327.575 224.239 328.516 226.346 329.361C226.286 329.737 226.227 330.119 226.171 330.508C225.579 334.652 225.314 339.38 226.676 341.471C227.267 342.601 227.59 343.852 227.621 345.127C227.621 347.107 230.616 351.221 230.616 351.221C230.616 351.221 228.252 368.131 232.192 373.92C236.132 379.709 239.442 390.221 237.551 392.659C237.551 392.659 234.241 399.819 235.817 403.018C237.393 406.217 235.817 408.045 233.768 408.807C231.719 409.569 231.896 415.815 231.896 415.815L235.66 445.522C235.66 445.522 237.709 451.616 235.975 453.749C234.241 455.882 234.241 466.546 236.921 470.202C239.6 473.859 233.138 480.562 233.138 480.562C233.138 480.562 229.197 486.199 235.502 488.027C235.502 488.027 236.763 488.331 234.399 490.769C232.034 493.206 231.562 496.253 233.138 497.32C233.465 497.516 233.806 497.685 234.16 497.827C234.102 498.188 234.038 498.562 233.964 498.959C233.358 502.14 232.217 506.284 230.143 508.289C226.123 512.402 222.654 517.019 219.822 522.024C217.66 526.119 216.714 529.952 219.11 531.75C224.784 536.016 232.034 537.387 236.29 535.711C240.546 534.035 246.535 528.855 246.535 528.855L247.954 522.914C247.954 522.914 247.008 519.258 251.736 517.886C256.465 516.515 260.878 511.64 260.878 511.64V503.743C262.023 503.089 263.128 502.369 264.188 501.586C264.188 501.586 266.395 493.816 264.188 491.226C261.982 488.636 261.193 487.722 264.031 486.046C266.868 484.37 267.252 480.714 265.172 477.515C263.085 474.316 259.775 469.593 262.612 462.89C265.449 456.187 266.489 435.62 266.489 435.62C266.489 435.62 265.165 421.604 266.489 418.405C267.813 415.206 264.976 408.807 264.976 408.807C264.976 408.807 265.922 400.885 267.656 397.229C269.389 393.573 270.808 374.225 270.808 374.225C270.808 374.225 273.96 365.998 273.96 360.666C273.96 355.334 269.074 342.537 276.325 339.185C276.325 339.185 279.477 341.928 278.216 352.896C278.216 352.896 281.841 365.694 281.841 369.654C281.841 373.615 284.521 387.936 284.521 387.936C284.521 387.936 284.836 392.506 285.939 394.182C287.042 395.858 285.939 400.428 285.939 400.428C285.939 400.428 290.037 404.237 288.934 406.674C287.831 409.112 289.123 414.609 289.123 414.609L288.146 448.722C288.146 448.722 285.309 463.347 291.929 472.183C291.929 472.183 289.564 485.132 288.146 486.046C286.727 486.96 293.347 494.882 293.347 494.882C293.347 494.882 291.512 500.014 295.239 500.266V508.746C296.532 511.029 298.307 513.004 300.44 514.535C303.907 516.972 302.489 525.351 302.489 525.351C302.489 525.351 306.902 536.016 318.566 533.73C330.229 531.445 331.805 530.379 331.175 526.57C330.948 525.181 330.444 522.701 329.719 519.885C328.464 514.992 326.541 509.087 324.24 506.174C320.615 501.586 317.62 491.988 317.62 491.988C317.62 491.988 316.201 488.789 317.62 487.722C319.039 486.656 318.408 484.675 318.408 484.675C318.408 484.675 319.789 480.714 318.547 478.277C317.305 475.839 320.93 470.812 320.93 470.812L319.827 447.351L320.93 413.225C320.93 413.225 316.044 407.589 318.093 404.237C320.142 400.885 315.729 396.163 315.729 396.163C315.729 396.163 315.256 396.01 316.517 392.202C317.271 389.957 317.159 387.512 316.201 385.346C316.201 385.346 313.522 375.901 318.25 368.741C318.25 368.741 320.3 359.295 320.93 354.42C321.365 351.032 324.089 338.375 325.709 330.971C325.8 330.553 325.888 330.152 325.972 329.769C328.306 329.897 330.072 330.045 330.072 330.045C330.072 330.045 326.446 304.908 330.072 299.728C333.697 294.548 327.235 254.939 327.235 254.939C327.235 254.939 325.69 248.016 324.738 240.953C324.684 240.551 324.634 240.149 324.584 239.747C327.51 239.513 330.448 239.448 333.382 239.552C340.947 240.009 348.355 237.114 348.513 234.22C348.67 231.325 352.768 219.899 353.399 217.309C354.029 214.719 354.502 205.883 353.399 203.75Z" fill="url(#paint0_linear)"/>
<path d="M261.43 497.642V511.748C261.43 511.748 257.177 516.602 252.621 517.967C248.065 519.332 248.976 522.973 248.976 522.973L247.609 528.888C247.609 528.888 241.838 534.045 237.738 535.714C233.637 537.382 226.651 536.017 221.183 531.77C218.875 529.98 219.786 526.164 221.87 522.087C224.585 517.122 227.927 512.526 231.814 508.411C233.813 506.415 234.913 502.289 235.496 499.122C235.927 496.75 236.067 494.912 236.067 494.912L261.43 497.642Z" fill="#4C495A"/>
<path opacity="0.1" d="M261.43 508.169V511.748C261.43 511.748 257.177 516.602 252.621 517.967C248.065 519.332 248.976 522.973 248.976 522.973L247.609 528.888C247.609 528.888 241.838 534.045 237.738 535.714C233.637 537.382 226.651 536.017 221.183 531.77C218.875 529.98 219.786 526.164 221.87 522.087C221.773 526.37 223.042 531.182 229.233 531.012C235.914 530.8 242.353 528.462 247.609 524.338C247.609 524.338 247.457 514.327 254.444 512.052C256.997 511.21 259.368 509.892 261.43 508.169Z" fill="black"/>
<path d="M317.016 533.742C305.777 536.017 301.524 525.4 301.524 525.4C301.524 525.4 302.891 517.057 299.55 514.63C297.484 513.091 295.774 511.125 294.538 508.866V494.912L308.207 485.204L315.606 491.745L316.104 492.181C316.104 492.181 318.99 501.737 322.483 506.306C324.7 509.206 326.553 515.085 327.762 519.957C328.461 522.76 328.947 525.23 329.165 526.613C329.773 530.405 328.254 531.467 317.016 533.742Z" fill="#4C495A"/>
<path opacity="0.1" d="M317.016 533.742C305.777 536.017 301.524 525.4 301.524 525.4C301.524 525.4 302.891 517.057 299.55 514.63C297.484 513.091 295.774 511.125 294.538 508.866V503.46C296.707 505.748 300.796 510.177 301.676 512.052C302.891 514.63 303.043 524.034 308.663 525.703C314.282 527.371 325.217 528.888 326.128 524.641C326.507 523.027 327.055 521.457 327.762 519.957C328.461 522.76 328.947 525.23 329.165 526.613C329.773 530.405 328.254 531.467 317.016 533.742Z" fill="black"/>
<path opacity="0.1" d="M236.067 494.912L261.43 497.642V505.099C258.569 506.791 254.468 508.587 252.166 506.743C248.764 504.025 238.649 500.572 235.496 499.122C235.927 496.75 236.067 494.912 236.067 494.912Z" fill="black"/>
<path opacity="0.1" d="M316.104 493.395C312.611 492.181 306.384 497.49 298.183 500.827C297.043 501.364 295.798 501.641 294.538 501.64V494.912L308.207 485.204L315.606 491.745C315.72 492.309 315.887 492.861 316.104 493.395Z" fill="black"/>
<path d="M325.065 326.394C325.065 326.394 324.585 328.627 323.899 331.867C322.337 339.238 319.713 351.84 319.294 355.213C318.686 360.067 316.712 369.471 316.712 369.471C312.156 376.6 314.737 386.005 314.737 386.005C315.661 388.169 315.769 390.593 315.041 392.83C313.826 396.622 314.282 396.774 314.282 396.774C314.282 396.774 318.534 401.476 316.56 404.813C314.586 408.15 319.294 413.762 319.294 413.762L318.231 447.739L319.294 471.098C319.294 471.098 315.801 476.103 316.997 478.53C318.194 480.957 316.864 484.901 316.864 484.901C316.864 484.901 317.471 486.873 316.104 487.934C314.737 488.996 316.104 492.181 316.104 492.181C312.611 490.968 306.384 496.277 298.183 499.614C289.982 502.951 292.716 495.063 292.716 495.063C292.716 495.063 286.337 487.176 287.704 486.266C289.071 485.356 291.349 472.463 291.349 472.463C284.97 463.665 287.704 449.104 287.704 449.104L288.646 415.14C288.646 415.14 287.4 409.667 288.463 407.24C289.526 404.813 285.578 401.021 285.578 401.021C285.578 401.021 286.641 396.471 285.578 394.802C284.515 393.134 284.211 388.583 284.211 388.583C284.211 388.583 281.629 374.325 281.629 370.381C281.629 366.438 278.136 353.697 278.136 353.697C279.351 342.776 276.313 340.045 276.313 340.045C269.327 343.382 274.035 356.123 274.035 361.432C274.035 366.741 270.998 374.932 270.998 374.932C270.998 374.932 269.631 394.195 267.96 397.836C266.29 401.476 265.378 409.364 265.378 409.364C265.378 409.364 268.112 415.734 266.836 418.92C265.561 422.105 266.836 436.059 266.836 436.059C266.836 436.059 265.834 456.536 263.1 463.21C260.367 469.884 263.556 474.587 265.567 477.772C267.572 480.957 267.201 484.597 264.467 486.266C261.733 487.934 262.493 488.845 264.619 491.423C266.745 494.002 264.619 501.737 264.619 501.737C264.619 501.737 255.962 508.563 252.165 505.529C248.369 502.496 236.219 498.552 234.7 497.49C233.181 496.429 233.637 493.395 235.915 490.968C238.193 488.541 236.978 488.238 236.978 488.238C230.903 486.418 234.7 480.805 234.7 480.805C234.7 480.805 240.927 474.131 238.345 470.491C235.763 466.851 235.763 456.233 237.434 454.11C239.104 451.986 237.13 445.919 237.13 445.919L233.503 416.341C233.503 416.341 233.333 410.122 235.307 409.364C237.282 408.605 238.801 406.785 237.282 403.6C235.763 400.414 238.952 393.285 238.952 393.285C240.775 390.858 237.586 380.392 233.789 374.629C229.992 368.865 232.27 352.028 232.27 352.028C232.27 352.028 229.384 347.933 229.384 345.961C229.356 344.695 229.045 343.451 228.473 342.32C227.161 340.239 227.416 335.531 227.987 331.405C228.54 327.413 229.384 323.967 229.384 323.967L325.065 326.394Z" fill="#5F5D7E"/>
<path d="M295.298 154.539L265.379 161.517C265.379 161.517 250.647 149.079 254.292 142.405C255.543 140.111 256.096 136.198 256.284 132.06C256.43 128.826 256.351 125.447 256.211 122.589C255.999 118.457 255.659 115.405 255.659 115.405C255.659 115.405 286.337 98.1138 285.274 115.405C285.058 118.285 285.125 121.179 285.474 124.045C285.691 126.085 286.287 128.066 287.23 129.888C288.87 132.806 290.893 132.849 290.893 132.849L295.298 154.539Z" fill="#FDC2CC"/>
<path opacity="0.1" d="M285.474 124.045C281.151 127.143 275.903 128.685 270.588 128.421C265.274 128.156 260.206 126.101 256.211 122.589C255.999 118.457 255.659 115.405 255.659 115.405C255.659 115.405 286.337 98.1138 285.274 115.405C285.058 118.285 285.125 121.179 285.474 124.045Z" fill="black"/>
<path d="M271.757 127.843C284.758 127.843 295.298 117.317 295.298 104.333C295.298 91.3482 284.758 80.8222 271.757 80.8222C258.756 80.8222 248.217 91.3482 248.217 104.333C248.217 117.317 258.756 127.843 271.757 127.843Z" fill="#FDC2CC"/>
<path opacity="0.1" d="M295.298 154.539L265.379 161.517C265.379 161.517 250.647 149.079 254.292 142.405C255.543 140.111 256.096 136.198 256.284 132.06C256.945 135.658 258.879 138.899 261.734 141.191C268.568 145.742 267.505 151.354 267.505 151.354L279.806 150.899C279.047 145.893 283.603 143.163 285.122 142.556C286.641 141.95 285.881 139.219 285.881 139.219L287.23 129.888C288.87 132.806 290.893 132.849 290.893 132.849L295.298 154.539Z" fill="black"/>
<path opacity="0.1" d="M325.065 326.394C325.065 326.394 324.585 328.627 323.899 331.867C320.594 331.691 316.226 331.563 314.282 332.006C310.941 332.765 297.576 333.068 297.576 333.068L264.467 334.239V333.22C260.659 333.25 256.856 333.503 253.077 333.978C247.457 334.736 238.649 333.675 233.029 332.765C231.3 332.517 229.607 332.061 227.987 331.405C228.54 327.413 229.384 323.967 229.384 323.967L325.065 326.394Z" fill="black"/>
<path d="M322.483 230.076C322.003 232.91 322.355 237.606 322.963 242.241C323.88 249.273 325.369 256.166 325.369 256.166C325.369 256.166 331.595 295.603 328.102 300.76C324.609 305.917 328.102 330.944 328.102 330.944C328.102 330.944 317.623 330.034 314.282 330.793C310.941 331.551 297.576 331.854 297.576 331.854L264.467 333.025V332.006C260.659 332.037 256.856 332.29 253.077 332.765C247.457 333.523 238.649 332.461 233.029 331.551C227.41 330.641 225.132 328.821 225.739 327.911C226.347 327.001 225.132 302.125 225.132 302.125L224.98 281.951C224.98 281.951 224.828 267.693 228.321 264.508C229.749 263.21 230.921 258.41 231.814 253.193C233.096 245.639 233.789 237.205 233.789 237.205L210.704 175.471L210.248 174.258C210.248 174.258 216.931 163.943 215.868 158.938C214.805 153.932 222.094 149.534 222.094 149.534C222.094 149.534 235.915 143.466 236.826 141.646C237.737 139.826 247.306 139.371 247.306 139.371C247.306 139.371 252.773 136.489 253.715 134.62C253.944 134.098 254.294 133.638 254.737 133.279C255.18 132.919 255.702 132.67 256.26 132.552C256.904 136.194 258.848 139.479 261.734 141.798C268.568 146.348 267.505 151.961 267.505 151.961L279.806 151.506C279.047 146.5 283.603 143.77 285.122 143.163C286.641 142.556 285.881 139.826 285.881 139.826L287.303 130.003C287.959 128.371 292.564 134.62 292.564 134.62C292.564 134.62 304.258 138.613 305.018 138.916C305.777 139.219 315.649 142.253 315.649 142.253C315.649 142.253 327.799 150.14 327.799 152.112C327.799 154.084 334.481 164.702 334.481 164.702C334.481 164.702 334.402 165.127 334.256 165.903C332.713 174.264 323.595 223.554 322.483 230.076Z" fill="#E63946"/>
<path d="M273.883 205.504C273.883 205.504 247.609 198.527 245.027 196.858C242.446 195.19 227.258 204.897 245.787 218.094C245.787 218.094 268.444 222.796 274.505 218.094C280.566 213.391 273.883 205.504 273.883 205.504Z" fill="#FDC2CC"/>
<path opacity="0.1" d="M330.684 163.943L333.874 164.095L343.29 189.274C343.29 189.274 348.909 202.47 349.972 204.594C351.035 206.718 350.58 215.515 349.972 218.094C349.365 220.672 345.416 232.048 345.264 234.93C345.112 237.812 337.974 240.694 330.684 240.239C323.394 239.784 306.384 242.059 306.384 242.059C306.384 242.059 288.218 240.163 277.073 245.851C277.073 245.851 269.935 231.138 270.694 203.684C270.694 203.684 283.3 202.925 286.489 204.139C289.678 205.352 305.169 208.841 307.144 207.021C309.118 205.201 318.079 210.358 318.079 210.358C318.535 209.358 318.771 208.272 318.771 207.173C318.771 206.074 318.535 204.987 318.079 203.987C316.56 200.347 313.978 188.971 317.319 185.33C320.661 181.69 330.684 163.943 330.684 163.943Z" fill="black"/>
<path opacity="0.1" d="M322.963 242.241C315.424 242.751 306.992 243.879 306.992 243.879C306.992 243.879 288.828 241.98 277.68 247.671C277.68 247.671 270.542 232.958 271.302 205.504C271.302 205.504 283.907 204.746 287.096 205.959C290.286 207.173 305.777 210.661 307.751 208.841C309.726 207.021 318.686 212.178 318.686 212.178C319.142 211.178 319.378 210.092 319.378 208.993C319.378 207.894 319.142 206.808 318.686 205.807C317.167 202.167 314.586 190.791 317.927 187.151C321.268 183.51 331.292 165.764 331.292 165.764L334.256 165.903C332.713 174.264 323.595 223.554 322.483 230.076C322.003 232.91 322.355 237.606 322.963 242.241Z" fill="black"/>
<path d="M331.292 164.55L334.481 164.702L343.897 189.881C343.897 189.881 349.517 203.077 350.58 205.201C351.643 207.324 351.187 216.122 350.58 218.7C349.972 221.279 346.023 232.655 345.872 235.537C345.72 238.419 338.582 241.301 331.292 240.846C324.002 240.391 306.992 242.666 306.992 242.666C306.992 242.666 288.826 240.77 277.68 246.458C277.68 246.458 270.542 231.745 271.302 204.291C271.302 204.291 283.907 203.532 287.096 204.746C290.286 205.959 305.777 209.448 307.751 207.628C309.726 205.807 318.686 210.965 318.686 210.965C319.142 209.964 319.378 208.878 319.378 207.779C319.378 206.68 319.142 205.594 318.686 204.594C317.167 200.954 314.586 189.578 317.927 185.937C321.268 182.297 331.292 164.55 331.292 164.55Z" fill="#E63946"/>
<path d="M299.205 220.265L302.995 222.608L324.113 188.545L320.323 186.202L299.205 220.265Z" fill="#DFE6F5"/>
<path d="M334.941 183.932C338.673 177.912 338.272 170.913 334.044 168.298C329.816 165.684 323.363 168.445 319.631 174.465C315.899 180.484 316.301 187.484 320.528 190.098C324.756 192.713 331.209 189.952 334.941 183.932Z" fill="#DFE6F5"/>
<path opacity="0.1" d="M332.781 182.596C335.46 178.275 335.171 173.251 332.137 171.374C329.102 169.498 324.47 171.479 321.791 175.8C319.112 180.122 319.401 185.146 322.435 187.022C325.47 188.899 330.102 186.917 332.781 182.596Z" fill="black"/>
<path d="M288.411 237.674L292.201 240.018L305.341 218.823L301.551 216.48L288.411 237.674Z" fill="#53526B"/>
<path d="M266.138 239.177L275.402 236.599C275.402 236.599 321.116 237.812 305.777 219.004C305.777 219.004 297.728 211.268 280.87 217.487C264.012 223.706 259.304 224.464 259.304 224.464L266.138 239.177Z" fill="#FDC2CC"/>
<path opacity="0.1" d="M259.304 159.848C260.31 159.848 261.126 159.033 261.126 158.028C261.126 157.023 260.31 156.208 259.304 156.208C258.297 156.208 257.481 157.023 257.481 158.028C257.481 159.033 258.297 159.848 259.304 159.848Z" fill="black"/>
<path opacity="0.1" d="M290.59 158.786C291.596 158.786 292.412 157.971 292.412 156.966C292.412 155.961 291.596 155.146 290.59 155.146C289.583 155.146 288.767 155.961 288.767 156.966C288.767 157.971 289.583 158.786 290.59 158.786Z" fill="black"/>
<path d="M259.304 159.241C260.31 159.241 261.126 158.426 261.126 157.421C261.126 156.416 260.31 155.601 259.304 155.601C258.297 155.601 257.481 156.416 257.481 157.421C257.481 158.426 258.297 159.241 259.304 159.241Z" fill="white"/>
<path opacity="0.1" d="M261.885 185.027C262.892 185.027 263.708 184.212 263.708 183.207C263.708 182.202 262.892 181.387 261.885 181.387C260.879 181.387 260.063 182.202 260.063 183.207C260.063 184.212 260.879 185.027 261.885 185.027Z" fill="black"/>
<path opacity="0.1" d="M291.501 183.207C292.507 183.207 293.323 182.392 293.323 181.387C293.323 180.382 292.507 179.567 291.501 179.567C290.494 179.567 289.678 180.382 289.678 181.387C289.678 182.392 290.494 183.207 291.501 183.207Z" fill="black"/>
<path d="M261.885 184.42C262.892 184.42 263.708 183.605 263.708 182.6C263.708 181.595 262.892 180.78 261.885 180.78C260.879 180.78 260.063 181.595 260.063 182.6C260.063 183.605 260.879 184.42 261.885 184.42Z" fill="white"/>
<path opacity="0.1" d="M290.741 271.041C291.748 271.041 292.564 270.226 292.564 269.22C292.564 268.215 291.748 267.4 290.741 267.4C289.735 267.4 288.919 268.215 288.919 269.22C288.919 270.226 289.735 271.041 290.741 271.041Z" fill="black"/>
<path opacity="0.1" d="M266.756 271.041C267.762 271.041 268.578 270.226 268.578 269.22C268.578 268.215 267.762 267.4 266.756 267.4C265.749 267.4 264.933 268.215 264.933 269.22C264.933 270.226 265.749 271.041 266.756 271.041Z" fill="black"/>
<path d="M290.741 270.434C291.748 270.434 292.564 269.619 292.564 268.614C292.564 267.608 291.748 266.794 290.741 266.794C289.735 266.794 288.919 267.608 288.919 268.614C288.919 269.619 289.735 270.434 290.741 270.434Z" fill="white"/>
<path opacity="0.1" d="M268.578 301.518C269.585 301.518 270.401 300.703 270.401 299.698C270.401 298.693 269.585 297.878 268.578 297.878C267.572 297.878 266.756 298.693 266.756 299.698C266.756 300.703 267.572 301.518 268.578 301.518Z" fill="black"/>
<path opacity="0.1" d="M291.501 299.698C292.507 299.698 293.323 298.883 293.323 297.878C293.323 296.873 292.507 296.058 291.501 296.058C290.494 296.058 289.678 296.873 289.678 297.878C289.678 298.883 290.494 299.698 291.501 299.698Z" fill="black"/>
<path d="M268.578 300.911C269.585 300.911 270.401 300.097 270.401 299.091C270.401 298.086 269.585 297.271 268.578 297.271C267.572 297.271 266.756 298.086 266.756 299.091C266.756 300.097 267.572 300.911 268.578 300.911Z" fill="white"/>
<path d="M266.756 270.434C267.762 270.434 268.578 269.619 268.578 268.614C268.578 267.608 267.762 266.794 266.756 266.794C265.749 266.794 264.933 267.608 264.933 268.614C264.933 269.619 265.749 270.434 266.756 270.434Z" fill="white"/>
<path d="M291.501 299.091C292.507 299.091 293.323 298.276 293.323 297.271C293.323 296.266 292.507 295.451 291.501 295.451C290.494 295.451 289.678 296.266 289.678 297.271C289.678 298.276 290.494 299.091 291.501 299.091Z" fill="white"/>
<path d="M290.59 158.18C291.596 158.18 292.412 157.365 292.412 156.359C292.412 155.354 291.596 154.539 290.59 154.539C289.583 154.539 288.767 155.354 288.767 156.359C288.767 157.365 289.583 158.18 290.59 158.18Z" fill="white"/>
<path d="M291.501 182.6C292.507 182.6 293.323 181.785 293.323 180.78C293.323 179.775 292.507 178.96 291.501 178.96C290.494 178.96 289.678 179.775 289.678 180.78C289.678 181.785 290.494 182.6 291.501 182.6Z" fill="white"/>
<path opacity="0.1" d="M294.234 244.638C294.234 244.638 294.538 286.198 295.45 293.631C295.45 293.631 295.78 246.597 294.234 244.638Z" fill="black"/>
<path opacity="0.1" d="M301.98 263.901C301.354 263.901 314.434 312.591 315.041 316.08C315.649 319.568 305.625 263.901 301.98 263.901Z" fill="black"/>
<path opacity="0.1" d="M312.307 256.014C312.307 256.469 319.597 282.406 323.242 283.772C326.887 285.137 312.307 256.014 312.307 256.014Z" fill="black"/>
<path opacity="0.1" d="M341.012 205.504C341.012 205.504 325.52 206.194 325.065 208.427C324.609 210.661 341.012 205.504 341.012 205.504Z" fill="black"/>
<path opacity="0.1" d="M313.674 403.296C313.674 403.296 302.588 407.998 304.258 408.302C305.929 408.605 313.674 403.296 313.674 403.296Z" fill="black"/>
<path opacity="0.1" d="M290.741 396.319C290.31 395.349 298.183 400.263 298.183 400.869C298.183 401.476 291.349 397.684 290.741 396.319Z" fill="black"/>
<path opacity="0.1" d="M301.069 412.245C301.069 412.245 309.726 411.809 310.333 415.137C310.941 418.464 301.069 412.245 301.069 412.245Z" fill="black"/>
<path opacity="0.1" d="M238.801 412.227C238.801 412.227 248.217 410.388 248.976 412.227C249.736 414.066 238.801 412.227 238.801 412.227Z" fill="black"/>
<path opacity="0.1" d="M242.294 469.429C242.294 469.429 242.911 477.165 240.628 478.985C238.345 480.805 242.294 469.429 242.294 469.429Z" fill="black"/>
<path opacity="0.1" d="M241.144 485.811C244.116 486.114 259.759 483.384 259.607 485.811C259.455 488.238 241.144 485.811 241.144 485.811Z" fill="black"/>
<path opacity="0.1" d="M312.915 476.407C312.915 476.407 307.58 475.588 308.881 479.182L312.915 476.407Z" fill="black"/>
<path opacity="0.1" d="M213.741 173.651H210.856L206.452 189.729C206.452 189.729 204.933 195.341 203.414 196.707C201.895 198.072 204.781 210.51 204.781 210.51C204.781 210.51 203.11 219.307 201.743 221.582C200.377 223.858 203.87 229.47 203.87 229.47L210.856 245.851L229.384 250.705C229.384 250.705 262.037 257.834 263.556 258.896C265.075 259.958 266.442 258.441 267.505 248.582C268.568 238.722 271.453 219.61 273.732 218.7C273.732 218.7 255.507 220.672 253.988 220.369C252.469 220.066 245.179 220.521 245.179 220.521C245.179 220.521 235.611 219.914 234.093 220.824C232.574 221.734 236.067 216.418 236.067 216.418C236.706 213.984 236.706 211.427 236.067 208.993C235.004 204.897 234.396 158.483 213.741 173.651Z" fill="black"/>
<path opacity="0.1" d="M273.124 220.521C270.846 221.431 267.96 240.542 266.897 250.402C265.834 260.261 264.467 261.778 262.949 260.716C261.715 259.854 239.949 254.989 231.814 253.193C233.096 245.639 233.789 237.205 233.789 237.205L210.704 175.471H213.134C233.789 160.303 234.396 206.718 235.459 210.813C236.099 213.247 236.099 215.805 235.459 218.239C235.459 218.239 231.966 223.554 233.485 222.644C235.004 221.734 244.572 222.341 244.572 222.341C244.572 222.341 251.862 221.886 253.38 222.189C254.899 222.492 273.124 220.521 273.124 220.521Z" fill="black"/>
<path d="M213.134 174.258H210.248L205.844 190.336C205.844 190.336 204.325 195.948 202.807 197.313C201.288 198.678 204.173 211.116 204.173 211.116C204.173 211.116 202.503 219.914 201.136 222.189C199.769 224.464 203.262 230.076 203.262 230.076L210.248 246.458L228.777 251.312C228.777 251.312 261.43 258.441 262.949 259.503C264.467 260.564 265.834 259.048 266.897 249.188C267.96 239.329 270.846 220.217 273.124 219.307C273.124 219.307 254.899 221.279 253.38 220.976C251.862 220.672 244.572 221.127 244.572 221.127C244.572 221.127 235.004 220.521 233.485 221.431C231.966 222.341 235.459 217.025 235.459 217.025C236.099 214.591 236.099 212.034 235.459 209.6C234.396 205.504 233.789 159.09 213.134 174.258Z" fill="#E63946"/>
<path opacity="0.1" d="M223.006 229.166C223.006 229.166 214.653 244.941 213.134 243.121C211.615 241.301 223.006 229.166 223.006 229.166Z" fill="black"/>
<path opacity="0.1" d="M214.349 220.183C214.349 220.183 206.603 226.588 210.248 228.256C213.893 229.925 214.349 220.183 214.349 220.183Z" fill="black"/>
<path opacity="0.1" d="M221.639 212.33C222.246 212.481 232.878 214.59 233.029 215.508C233.181 216.425 221.639 212.33 221.639 212.33Z" fill="black"/>
<path opacity="0.1" d="M295.364 101.214C295.034 101.33 294.752 101.553 294.564 101.848C294.376 102.143 294.292 102.492 294.326 102.84C293.706 103.386 292.837 102.743 292.333 102.045C291.823 101.354 291.246 100.498 290.474 100.595C290.108 100.712 289.752 100.86 289.411 101.038C288.196 101.426 287.169 100.001 286.489 98.7509C285.304 96.5606 284.12 94.3723 282.935 92.1861C280.56 93.5634 277.753 92.1194 275.396 90.6935C273.039 89.2677 270.232 87.8177 267.851 89.1949C264.358 91.2093 264.23 97.9257 260.61 99.5821C259.443 100.116 258.089 100.001 257.007 100.735C255.938 101.463 255.361 102.864 254.881 104.205C254.703 104.969 254.286 105.655 253.69 106.165C253.312 106.363 252.89 106.465 252.463 106.462C251.39 106.645 250.286 106.49 249.304 106.019C248.79 105.696 248.401 105.208 248.202 104.634C248.003 104.06 248.006 103.436 248.211 102.864C248.239 102.804 248.272 102.745 248.308 102.689C248.697 102.219 249.046 101.717 249.353 101.19C249.717 100.225 249.195 99.1028 249.31 98.0592C249.499 96.2754 251.388 95.335 251.71 93.5816C251.843 92.896 251.704 92.1618 251.831 91.4702C251.849 91.3795 251.874 91.2903 251.904 91.2032L250.793 91.9677C252.038 90.5176 252.664 88.5033 253.575 86.7438C254.587 84.8173 255.98 83.1159 257.67 81.7424C259.359 80.369 261.31 79.3521 263.404 78.7532C267.365 77.6005 271.551 77.9159 275.548 78.8928C279.349 79.8385 282.99 81.3369 286.355 83.34C287.557 83.9839 288.625 84.8508 289.502 85.8943C290.237 86.9763 290.861 88.1287 291.367 89.3345C292.546 91.7735 295.765 94.0305 293.202 94.3703C291.07 94.6554 293.013 96.148 294.131 97.1551C294.383 97.3526 294.601 97.5904 294.775 97.8589C294.961 98.2427 295.046 98.6671 295.022 99.0926C294.999 99.5181 294.868 99.9308 294.641 100.292C294.21 100.838 295.96 100.947 295.364 101.214Z" fill="black"/>
<path d="M295.364 100.607C295.034 100.723 294.752 100.947 294.564 101.241C294.376 101.536 294.292 101.885 294.326 102.233C293.706 102.78 292.837 102.136 292.333 101.439C291.823 100.747 291.246 99.8915 290.474 99.9886C290.108 100.105 289.752 100.254 289.411 100.431C288.196 100.82 287.169 99.394 286.489 98.1441C285.304 95.9539 284.12 93.7656 282.935 91.5794C280.56 92.9566 277.753 91.5126 275.396 90.0868C273.039 88.661 270.232 87.2109 267.851 88.5882C264.358 90.6025 264.23 97.319 260.61 98.9753C259.443 99.5093 258.089 99.394 257.007 100.128C255.938 100.856 255.361 102.258 254.881 103.599C254.703 104.362 254.286 105.049 253.69 105.558C253.312 105.756 252.89 105.858 252.463 105.856C251.39 106.038 250.286 105.883 249.304 105.413C248.79 105.09 248.401 104.601 248.202 104.027C248.003 103.454 248.006 102.829 248.211 102.258C248.239 102.197 248.272 102.138 248.308 102.082C248.697 101.612 249.046 101.111 249.353 100.583C249.717 99.6185 249.195 98.496 249.31 97.4525C249.499 95.6687 251.388 94.7283 251.71 92.9748C251.843 92.2892 251.704 91.5551 251.831 90.8634C251.849 90.7728 251.874 90.6836 251.904 90.5965L250.793 91.3609C252.038 89.9109 252.664 87.8966 253.575 86.137C254.587 84.2106 255.98 82.5092 257.67 81.1357C259.359 79.7623 261.31 78.7454 263.404 78.1464C267.365 76.9937 271.551 77.3092 275.548 78.286C279.349 79.2318 282.99 80.7302 286.355 82.7333C287.557 83.3771 288.625 84.2441 289.502 85.2876C290.237 86.3696 290.861 87.522 291.367 88.7277C292.546 91.1668 295.765 93.4238 293.202 93.7635C291.07 94.0487 293.013 95.5413 294.131 96.5484C294.383 96.7459 294.601 96.9837 294.775 97.2522C294.961 97.6359 295.046 98.0604 295.022 98.4859C294.999 98.9114 294.868 99.324 294.641 99.6852C294.21 100.231 295.96 100.34 295.364 100.607Z" fill="#865A61"/>
<path opacity="0.1" d="M294.131 96.5485L293.888 99.1028C293.888 99.1028 268.398 66.8371 248.569 103.271C248.569 103.271 248.472 102.828 248.308 102.082C248.697 101.612 249.047 101.111 249.353 100.583C249.717 99.6185 249.195 98.496 249.31 97.4525C249.499 95.6687 251.388 94.7283 251.71 92.9748C251.844 92.2892 251.704 91.5551 251.831 90.8634C251.849 90.7728 251.874 90.6836 251.904 90.5965L250.793 91.3609C252.038 89.9109 252.664 87.8966 253.575 86.137C254.587 84.2106 255.98 82.5092 257.67 81.1357C259.359 79.7623 261.31 78.7454 263.404 78.1464C267.365 76.9937 271.551 77.3092 275.548 78.286C279.349 79.2318 282.99 80.7302 286.355 82.7333C287.557 83.3771 288.625 84.2441 289.502 85.2876C290.237 86.3696 290.861 87.522 291.367 88.7277C292.546 91.1668 295.765 93.4238 293.202 93.7635C291.069 94.0487 293.013 95.5413 294.131 96.5485Z" fill="black"/>
<g opacity="0.1">
<path opacity="0.1" d="M294.76 100.277C294.634 100.418 294.543 100.586 294.493 100.768C294.442 100.95 294.435 101.142 294.471 101.327C293.851 101.873 292.983 101.23 292.478 100.532C291.968 99.8407 291.391 98.9852 290.619 99.0822C290.253 99.199 289.897 99.3472 289.556 99.5252C288.341 99.9135 287.315 98.4877 286.634 97.2378C285.45 95.0475 284.265 92.8593 283.08 90.673C280.705 92.0503 277.898 90.6063 275.541 89.1805C273.184 87.7547 270.378 86.3046 267.996 87.6819C264.503 89.6962 264.376 96.4127 260.755 98.069C259.588 98.6029 258.234 98.4876 257.152 99.2218C256.083 99.9498 255.506 101.351 255.026 102.692C254.849 103.456 254.431 104.142 253.836 104.652C253.457 104.85 253.036 104.952 252.608 104.949C251.535 105.131 250.431 104.977 249.449 104.506C248.861 104.117 248.439 103.522 248.266 102.838C248.145 103.382 248.194 103.949 248.405 104.464C248.617 104.979 248.981 105.418 249.449 105.72C250.431 106.19 251.535 106.345 252.608 106.163C253.036 106.165 253.457 106.063 253.836 105.865C254.431 105.356 254.849 104.669 255.026 103.906C255.506 102.565 256.083 101.163 257.152 100.435C258.234 99.7011 259.588 99.8164 260.755 99.2825C264.376 97.6261 264.503 90.9097 267.996 88.8953C270.378 87.5181 273.184 88.9681 275.541 90.3939C277.898 91.8197 280.705 93.2638 283.08 91.8865C284.265 94.0707 285.45 96.2589 286.634 98.4513C287.315 99.7011 288.341 101.127 289.556 100.739C289.897 100.561 290.253 100.412 290.619 100.296C291.391 100.199 291.968 101.054 292.478 101.746C292.983 102.444 293.851 103.087 294.471 102.541C294.437 102.193 294.521 101.843 294.709 101.549C294.898 101.254 295.179 101.031 295.51 100.915C295.983 100.702 294.976 100.589 294.76 100.277Z" fill="black"/>
<path opacity="0.1" d="M292.773 94.2153C292.957 94.1415 293.15 94.0929 293.347 94.0707C294.477 93.9209 294.482 93.3978 294.034 92.6513C293.822 92.7659 293.588 92.836 293.347 92.8572C292.127 93.0204 292.243 93.5789 292.773 94.2153Z" fill="black"/>
<path opacity="0.1" d="M295.101 99.2975C295.185 98.9063 295.183 98.5013 295.094 98.111C295.04 98.3529 294.935 98.5805 294.787 98.7789C294.596 99.0198 294.831 99.1756 295.101 99.2975Z" fill="black"/>
<path opacity="0.1" d="M249.491 97.5497C249.478 97.6191 249.463 97.6876 249.455 97.7596C249.431 98.306 249.471 98.8534 249.574 99.3905C249.646 98.7764 249.618 98.1548 249.491 97.5497Z" fill="black"/>
<path opacity="0.1" d="M251.957 90.1473C251.671 90.6883 251.33 91.1979 250.938 91.6681L251.918 90.9938C251.914 90.7111 251.926 90.4284 251.957 90.1473Z" fill="black"/>
</g>
<path d="M248.568 102.664C248.568 102.664 244.902 86.2986 246.069 83.6739C246.069 83.6739 242.903 77.1894 242.903 75.6455C242.749 73.0691 241.947 70.5732 240.57 68.389C238.904 65.7643 237.071 53.5673 247.068 50.6338C257.065 47.7003 264.73 45.0756 265.896 43.0685C267.062 41.0614 284.224 42.2966 288.889 50.0162C293.555 57.7359 296.554 56.1919 296.554 56.1919C296.554 56.1919 303.718 60.6693 303.718 64.6836C303.718 68.6978 301.552 70.7049 303.718 71.6312C305.884 72.5576 304.218 89.232 294.721 89.6952L293.888 98.4956C293.888 98.4956 268.395 66.2275 248.568 102.664Z" fill="#E63946"/>
<path opacity="0.1" d="M249.66 53.8229C249.66 53.8229 247.457 66.7158 251.482 71.0387L249.66 53.8229Z" fill="black"/>
<path opacity="0.1" d="M259.987 50.8651C259.987 50.8651 254.368 64.6681 255.735 67.3225L259.987 50.8651Z" fill="black"/>
<path opacity="0.1" d="M264.847 46.4664C264.847 46.4664 261.05 64.4406 262.873 65.8816L264.847 46.4664Z" fill="black"/>
<path opacity="0.1" d="M271.378 51.3202C271.378 51.3202 266.669 62.8479 268.568 64.4406L271.378 51.3202Z" fill="black"/>
<path opacity="0.1" d="M280.262 52.6853C280.262 52.6853 274.719 62.0895 275.858 63.758L280.262 52.6853Z" fill="black"/>
<path opacity="0.1" d="M291.653 61.862C291.653 61.862 285.73 63.4547 286.945 65.3507L291.653 61.862Z" fill="black"/>
<path opacity="0.1" d="M297.272 71.6455C297.272 71.6455 291.956 74.2241 292.944 75.5892L297.272 71.6455Z" fill="black"/>
<path opacity="0.1" d="M246.069 83.6739C246.069 83.6739 280.02 69.9006 294.721 89.6952C294.721 89.6953 276.877 74.5428 246.069 83.6739Z" fill="black"/>
<path d="M233.799 196.845L238.53 192.066L251.906 205.27L247.175 210.05L234.874 197.906L233.799 196.845Z" fill="#53526B"/>
<path d="M202.764 166.205C202.764 166.205 223.469 167.964 242.741 189.628L234.709 197.743L202.764 166.205Z" fill="#DFE6F5"/>
<path d="M264.869 204.94C264.869 204.94 244.968 197.694 243.013 195.961C241.057 194.229 229.553 204.31 243.588 218.013C243.588 218.013 260.749 222.896 265.34 218.013C269.931 213.13 264.869 204.94 264.869 204.94Z" fill="#FDC2CC"/>
<path d="M633.252 343.423H629.205V434.356H633.252V343.423Z" fill="#535461"/>
<path d="M658.667 434.079L658.411 438.175L658.054 443.954L657.905 446.366L657.548 452.152L657.393 454.563L657.035 460.342L652.955 526.09C652.78 528.919 651.531 531.574 649.463 533.515C647.396 535.457 644.665 536.537 641.827 536.537H620.63C617.793 536.537 615.062 535.456 612.996 533.515C610.929 531.574 609.682 528.918 609.508 526.09L605.421 460.342L605.064 454.563L604.915 452.152L604.551 446.366L604.403 443.954L604.045 438.175L603.789 434.079C603.741 433.293 603.854 432.506 604.122 431.765C604.39 431.025 604.807 430.347 605.347 429.773C605.887 429.199 606.539 428.742 607.263 428.43C607.987 428.118 608.767 427.956 609.555 427.957H652.908C653.696 427.957 654.476 428.118 655.199 428.43C655.923 428.743 656.574 429.2 657.114 429.774C657.653 430.347 658.07 431.025 658.337 431.766C658.604 432.507 658.717 433.294 658.667 434.079Z" fill="#65617D"/>
<path d="M658.411 438.175L658.054 443.954H604.402L604.045 438.175H658.411Z" fill="#9D9CB5"/>
<path d="M657.905 446.366L657.548 452.152H604.915L604.551 446.366H657.905Z" fill="#9D9CB5"/>
<path d="M657.393 454.563L657.035 460.342H605.421L605.064 454.563H657.393Z" fill="#9D9CB5"/>
<path d="M597.869 377.506C621.422 394.522 631.228 421.138 631.228 421.138C631.228 421.138 602.848 420.167 579.295 403.151C555.742 386.135 545.936 359.519 545.936 359.519C545.936 359.519 574.316 360.491 597.869 377.506Z" fill="#E63946"/>
<path d="M545.936 359.519C545.936 359.519 575.393 375.85 584.843 389.369C594.293 402.889 631.228 421.138 631.228 421.138" stroke="#535461" stroke-width="2" stroke-miterlimit="10"/>
<path d="M613.071 343.222C625.891 352.484 631.228 366.971 631.228 366.971C631.228 366.971 615.781 366.442 602.961 357.18C590.142 347.918 584.804 333.431 584.804 333.431C584.804 333.431 600.251 333.96 613.071 343.222Z" fill="#E63946"/>
<path d="M584.804 333.431C584.804 333.431 600.837 342.32 605.981 349.679C611.125 357.038 631.228 366.971 631.228 366.971" stroke="#535461" stroke-width="2" stroke-miterlimit="10"/>
<path d="M649.857 366.233C635.133 382.397 632.018 403.516 632.018 403.516C632.018 403.516 652.776 398.429 667.501 382.265C682.225 366.102 685.34 344.983 685.34 344.983C685.34 344.983 664.582 350.07 649.857 366.233Z" fill="#E63946"/>
<path d="M685.34 344.983C685.34 344.983 666.16 361.551 661.286 372.967C656.411 384.382 632.018 403.516 632.018 403.516" stroke="#535461" stroke-width="2" stroke-miterlimit="10"/>
<defs>
<linearGradient id="paint0_linear" x1="276.018" y1="536.405" x2="276.018" y2="40.0516" gradientUnits="userSpaceOnUse">
<stop stop-color="#808080" stop-opacity="0.25"/>
<stop offset="0.53514" stop-color="#808080" stop-opacity="0.12"/>
<stop offset="1" stop-color="#808080" stop-opacity="0.1"/>
</linearGradient>
</defs>
</svg>
