<svg width="299" height="67" viewBox="0 0 299 67" fill="none" xmlns="http://www.w3.org/2000/svg">
<path d="M71.8688 17.3696C72.1353 19.1663 72.4285 21.0422 72.7483 22.9975C73.0681 24.8999 73.3878 26.9608 73.7076 29.1803C76.1593 27.6478 78.7177 26.1153 81.3826 24.5828C84.1008 22.9975 86.6324 21.7292 88.9775 20.778C89.1907 20.7252 89.4572 20.7252 89.777 20.778C90.1501 20.778 90.5232 20.8573 90.8963 21.0158C91.2694 21.1215 91.5891 21.28 91.8556 21.4914C92.1221 21.7028 92.3087 21.967 92.4153 22.2841C92.5219 22.654 92.4419 23.156 92.1754 23.7901C91.9089 24.3714 91.6158 24.7149 91.296 24.8206C90.6564 25.1905 89.8037 25.6925 88.7377 26.3267C87.725 26.908 86.6324 27.5421 85.4599 28.2291C84.3406 28.9161 83.2213 29.603 82.1021 30.29C81.0361 30.977 80.1301 31.5583 79.3839 32.0339C82.4219 33.672 85.3799 35.0724 88.258 36.235C91.1894 37.3976 94.2807 38.3488 97.5319 39.0886C97.8517 39.1414 98.1715 39.3528 98.4913 39.7227C98.8643 40.0398 99.1575 40.4361 99.3707 40.9117C99.5839 41.3873 99.6905 41.8629 99.6905 42.3385C99.7438 42.8141 99.6372 43.2369 99.3707 43.6068C99.0509 44.0295 98.5979 44.2938 98.0116 44.3995C97.4786 44.4523 96.919 44.4259 96.3327 44.3202C92.282 43.369 88.5778 42.2064 85.22 40.8325C81.8622 39.4057 78.3446 37.6882 74.667 35.6801C74.9335 37.9524 75.1733 40.304 75.3865 42.7349C75.653 45.1657 75.8929 47.7286 76.106 50.4237C76.106 51.005 75.8662 51.3485 75.3865 51.4542C74.9068 51.507 74.3739 51.4806 73.7876 51.3749C73.2013 51.2692 72.6683 51.0843 72.1886 50.82C71.7089 50.5558 71.4158 50.2916 71.3092 50.0274C70.9894 47.5965 70.643 45.0336 70.2699 42.3385C69.9501 39.6435 69.577 36.922 69.1506 34.1741C68.7243 31.3733 68.2712 28.6254 67.7915 25.9303C67.3119 23.1824 66.8322 20.5666 66.3525 18.083C66.2459 17.5017 66.3791 16.8411 66.7522 16.1013C67.1253 15.3086 67.8182 14.8594 68.8309 14.7538C69.2039 14.7538 69.5504 14.8594 69.8702 15.0708C70.2433 15.2294 70.563 15.4672 70.8295 15.7842C71.1493 16.0484 71.3892 16.3391 71.5491 16.6562C71.7089 16.9204 71.8155 17.1582 71.8688 17.3696Z" fill="#E63946"/>
<path d="M108.272 44.3202C108.325 44.5316 108.352 44.8486 108.352 45.2714C108.352 45.6413 108.272 46.0376 108.112 46.4604C107.952 46.8303 107.712 47.1738 107.392 47.4908C107.126 47.7551 106.726 47.8872 106.193 47.8872C105.02 47.1474 104.034 46.1697 103.235 44.9543C102.809 43.369 102.409 41.5459 102.036 39.4849C101.716 37.424 101.45 35.2838 101.236 33.0643C101.023 30.792 100.863 28.4933 100.757 26.1681C100.703 23.843 100.703 21.5971 100.757 19.4305C100.757 19.0606 100.783 18.585 100.837 18.0037C100.943 17.4224 101.103 16.8675 101.316 16.3391C101.529 15.7578 101.796 15.2822 102.116 14.9123C102.436 14.4895 102.889 14.2782 103.475 14.2782C104.168 14.2782 104.727 14.4895 105.154 14.9123C105.58 15.335 105.793 16.022 105.793 16.9732C105.74 19.087 105.74 21.3593 105.793 23.7901C105.9 26.1681 106.06 28.5726 106.273 31.0034C106.486 33.4342 106.753 35.8122 107.072 38.1374C107.446 40.4097 107.845 42.4706 108.272 44.3202Z" fill="#E63946"/>
<path d="M142.566 18.6378C142.193 23.1296 141.74 27.727 141.207 32.4302C140.727 37.0805 140.061 41.4666 139.208 45.5885C138.995 46.5925 138.702 47.3059 138.329 47.7286C137.956 48.1514 137.423 48.442 136.73 48.6006C136.143 48.7063 135.317 48.5213 134.251 48.0457C133.239 47.5701 132.386 46.8831 131.693 45.9848C130.787 44.7694 129.801 43.4483 128.735 42.0215C127.722 40.5418 126.603 39.0622 125.377 37.5825C124.205 36.05 122.952 34.544 121.62 33.0643C120.341 31.5847 118.981 30.2107 117.542 28.9425C117.383 32.4302 117.249 35.8915 117.143 39.3264C117.036 42.7084 117.036 46.1169 117.143 49.5518C117.143 50.0274 116.716 50.2652 115.864 50.2652C114.851 50.2652 114.025 49.7632 113.385 48.7591C112.746 47.7022 112.373 46.6453 112.266 45.5885C112.106 44.5316 112.026 43.0255 112.026 41.0703C112.026 39.0622 112.053 36.9748 112.106 34.8082C112.213 32.6416 112.319 30.5542 112.426 28.5461C112.532 26.5381 112.639 24.9527 112.746 23.7901C112.852 22.5219 113.145 21.5971 113.625 21.0158C114.158 20.4345 114.664 20.1703 115.144 20.2232C116.21 20.3288 116.903 20.6459 117.223 21.1743C117.596 21.6499 117.809 22.2577 117.862 22.9975C119.781 24.3714 121.54 25.8511 123.139 27.4364C124.791 29.0217 126.283 30.6335 127.616 32.2717C129.002 33.9098 130.254 35.548 131.373 37.1862C132.546 38.7715 133.638 40.2247 134.651 41.5459C135.291 38.3752 135.797 34.8346 136.17 30.9241C136.597 27.0137 137.023 22.9182 137.449 18.6378C137.396 18.1094 137.716 17.6074 138.409 17.1318C139.102 16.6033 139.741 16.3655 140.327 16.4184C141.82 16.524 142.566 17.2639 142.566 18.6378Z" fill="#E63946"/>
<path d="M158.31 30.1315C158.044 30.1315 157.698 30.105 157.271 30.0522C156.898 29.9465 156.525 29.8144 156.152 29.6559C155.832 29.4445 155.539 29.2067 155.272 28.9425C155.006 28.6254 154.873 28.3083 154.873 27.9913C154.873 27.5685 155.113 27.0665 155.592 26.4852C156.125 25.8511 156.978 25.3755 158.151 25.0584C159.75 24.6885 161.428 24.4771 163.187 24.4243C164.946 24.3186 166.705 24.3186 168.464 24.4243C170.223 24.4771 171.955 24.5828 173.66 24.7413C175.366 24.847 176.965 24.9263 178.457 24.9791C179.31 24.9791 179.87 25.1377 180.136 25.4547C180.403 25.7718 180.536 26.1417 180.536 26.5645C180.536 27.5157 180.109 28.2555 179.257 28.7839C178.404 29.3124 177.551 29.5502 176.698 29.4973C175.792 29.4445 174.833 29.4181 173.82 29.4181C172.861 29.4181 171.848 29.4181 170.782 29.4181C170.782 30.8977 170.836 32.5623 170.942 34.4119C171.102 36.2086 171.262 38.0317 171.422 39.8813C171.582 41.7308 171.742 43.5011 171.902 45.1921C172.115 46.8831 172.301 48.3099 172.461 49.4725C172.568 49.8953 172.461 50.2916 172.141 50.6615C171.875 50.9786 171.448 51.1371 170.862 51.1371C169.743 51.1371 168.917 50.4501 168.384 49.0762C167.371 46.4868 166.652 43.5275 166.225 40.1983C163.347 41.9422 160.522 43.0255 157.751 43.4483C154.979 43.871 152.474 43.7917 150.236 43.2105C148.051 42.5763 146.265 41.5194 144.879 40.0398C143.547 38.5073 142.881 36.6578 142.881 34.4911C142.881 32.4302 143.254 30.2107 144 27.8327C144.746 25.4547 145.812 23.156 147.198 20.9366C148.584 18.7171 150.209 16.709 152.075 14.9123C153.993 13.0627 156.125 11.6624 158.47 10.7112C159.27 10.4998 160.016 10.4734 160.709 10.6319C161.455 10.7376 162.121 11.0018 162.708 11.4246C163.347 11.7945 163.907 12.2701 164.386 12.8514C164.919 13.3798 165.372 13.9082 165.746 14.4367C166.012 14.8066 166.172 15.2029 166.225 15.6257C166.279 16.0484 166.119 16.4448 165.746 16.8147C164.946 17.396 164.253 17.3431 163.667 16.6562C162.761 15.5464 161.988 14.8859 161.348 14.6745C160.762 14.4103 159.936 14.6216 158.87 15.3086C157.804 16.0484 156.632 17.1846 155.352 18.7171C154.073 20.1967 152.874 21.8613 151.755 23.7109C150.689 25.5076 149.836 27.3836 149.197 29.3388C148.557 31.2412 148.344 33.0115 148.557 34.6497C148.717 36.0765 149.516 37.1069 150.955 37.7411C152.394 38.3223 154.02 38.5866 155.832 38.5337C157.698 38.4809 159.536 38.1374 161.348 37.5033C163.214 36.8691 164.653 36.0236 165.666 34.9667C165.612 34.0684 165.559 33.17 165.506 32.2717C165.452 31.3205 165.426 30.3957 165.426 29.4973C164.253 29.603 163.081 29.7087 161.908 29.8144C160.736 29.8672 159.536 29.9729 158.31 30.1315Z" fill="#E63946"/>
<path d="M197.167 22.0463C197.38 22.3105 197.486 22.654 197.486 23.0767C197.54 23.4467 197.486 23.7637 197.327 24.0279C197.06 24.6092 196.607 24.8206 195.967 24.6621C194.848 24.3979 193.676 24.2922 192.45 24.345C191.224 24.3979 189.998 24.8735 188.772 25.7718C187.546 26.6702 186.587 27.9913 185.894 29.7351C185.201 31.4262 184.855 33.1964 184.855 35.046C184.855 36.8427 185.281 38.4016 186.134 39.7227C187.04 40.991 188.186 41.9158 189.572 42.4971C190.424 42.867 191.384 43.0783 192.45 43.1312C193.516 43.184 194.582 43.1576 195.648 43.0519C196.767 42.8934 197.86 42.682 198.926 42.4178C199.991 42.1007 201.004 41.7572 201.964 41.3873C202.283 41.2816 202.576 41.3081 202.843 41.4666C203.163 41.6251 203.376 41.8365 203.483 42.1007C203.749 42.7877 203.616 43.4747 203.083 44.1617C202.443 44.8486 201.59 45.4563 200.524 45.9848C199.458 46.5132 198.286 46.936 197.007 47.253C195.728 47.5701 194.422 47.7551 193.089 47.8079C191.757 47.8079 190.504 47.6494 189.332 47.3323C187.68 46.9096 186.267 46.3018 185.095 45.5092C183.975 44.6637 183.043 43.7125 182.297 42.6556C181.55 41.5459 180.991 40.3833 180.618 39.1679C180.245 37.8996 180.031 36.6049 179.978 35.2838C179.871 32.1131 180.484 29.2595 181.817 26.723C183.203 24.1865 185.121 22.3105 187.573 21.0951C189.385 20.1967 191.197 19.8532 193.009 20.0646C194.875 20.2232 196.261 20.8837 197.167 22.0463Z" fill="#E63946"/>
<path d="M232.244 34.3326C231.924 35.8122 231.337 37.239 230.485 38.613C229.685 39.9341 228.752 41.1759 227.687 42.3385C226.621 43.5011 225.448 44.5051 224.169 45.3507C222.943 46.1962 221.69 46.8567 220.411 47.3323C218.066 48.1778 215.721 48.4685 213.376 48.2042C211.084 47.8872 209.032 46.8303 207.22 45.0336C205.994 43.5539 205.115 41.8893 204.582 40.0398C204.102 38.1902 203.862 36.3143 203.862 34.4119C203.916 32.4566 204.182 30.5806 204.662 28.7839C205.195 26.9872 205.861 25.3755 206.66 23.9487C207.62 22.2577 208.766 20.8573 210.098 19.7476C211.431 18.6378 212.896 17.9773 214.495 17.7659C214.922 17.6602 215.268 17.7659 215.535 18.083C215.801 18.4 215.934 18.7699 215.934 19.1927C216.467 18.6642 217.293 18.2679 218.413 18.0037C219.532 17.7395 220.784 17.713 222.17 17.9244C224.728 18.2415 226.754 19.0077 228.246 20.2232C229.738 21.4386 230.831 22.8654 231.524 24.5035C232.27 26.0889 232.643 27.7799 232.643 29.5766C232.697 31.3205 232.563 32.9058 232.244 34.3326ZM214.815 23.3938C213.749 23.8694 212.843 24.5828 212.097 25.534C211.404 26.4324 210.818 27.4628 210.338 28.6254C209.912 29.788 209.618 31.0562 209.459 32.4302C209.352 33.7513 209.352 35.046 209.459 36.3143C209.618 38.1638 210.178 39.6963 211.137 40.9117C212.097 42.0743 213.589 42.6556 215.615 42.6556C216.787 42.6556 217.933 42.4442 219.052 42.0215C220.225 41.5459 221.291 40.9381 222.25 40.1983C223.209 39.4585 224.089 38.5866 224.888 37.5825C225.688 36.5256 226.327 35.4423 226.807 34.3326C227.074 33.7513 227.287 33.0379 227.447 32.1924C227.607 31.294 227.66 30.3957 227.607 29.4973C227.553 28.5461 227.34 27.6478 226.967 26.8023C226.594 25.9568 226.008 25.2434 225.208 24.6621C224.089 23.8694 222.756 23.3938 221.211 23.2353C219.665 23.0767 218.04 23.4202 216.334 24.2657C216.014 24.4771 215.641 24.53 215.215 24.4243C214.842 24.2657 214.708 23.9223 214.815 23.3938Z" fill="#E63946"/>
<path d="M263.379 34.3326C263.059 35.8122 262.473 37.239 261.62 38.613C260.821 39.9341 259.888 41.1759 258.822 42.3385C257.756 43.5011 256.584 44.5051 255.305 45.3507C254.079 46.1962 252.826 46.8567 251.547 47.3323C249.202 48.1778 246.857 48.4685 244.512 48.2042C242.22 47.8872 240.168 46.8303 238.356 45.0336C237.13 43.5539 236.25 41.8893 235.717 40.0398C235.238 38.1902 234.998 36.3143 234.998 34.4119C235.051 32.4566 235.318 30.5806 235.797 28.7839C236.33 26.9872 236.997 25.3755 237.796 23.9487C238.755 22.2577 239.901 20.8573 241.234 19.7476C242.566 18.6378 244.032 17.9773 245.631 17.7659C246.057 17.6602 246.404 17.7659 246.67 18.083C246.937 18.4 247.07 18.7699 247.07 19.1927C247.603 18.6642 248.429 18.2679 249.548 18.0037C250.668 17.7395 251.92 17.713 253.306 17.9244C255.864 18.2415 257.889 19.0077 259.382 20.2232C260.874 21.4386 261.967 22.8654 262.66 24.5035C263.406 26.0889 263.779 27.7799 263.779 29.5766C263.832 31.3205 263.699 32.9058 263.379 34.3326ZM245.951 23.3938C244.885 23.8694 243.979 24.5828 243.232 25.534C242.54 26.4324 241.953 27.4628 241.474 28.6254C241.047 29.788 240.754 31.0562 240.594 32.4302C240.488 33.7513 240.488 35.046 240.594 36.3143C240.754 38.1638 241.314 39.6963 242.273 40.9117C243.232 42.0743 244.725 42.6556 246.75 42.6556C247.923 42.6556 249.069 42.4442 250.188 42.0215C251.36 41.5459 252.426 40.9381 253.386 40.1983C254.345 39.4585 255.225 38.5866 256.024 37.5825C256.824 36.5256 257.463 35.4423 257.943 34.3326C258.209 33.7513 258.422 33.0379 258.582 32.1924C258.742 31.294 258.796 30.3957 258.742 29.4973C258.689 28.5461 258.476 27.6478 258.103 26.8023C257.73 25.9568 257.143 25.2434 256.344 24.6621C255.225 23.8694 253.892 23.3938 252.346 23.2353C250.801 23.0767 249.175 23.4202 247.47 24.2657C247.15 24.4771 246.777 24.53 246.35 24.4243C245.977 24.2657 245.844 23.9223 245.951 23.3938Z" fill="#E63946"/>
<path d="M270.691 17.3696C270.957 19.1663 271.25 21.0422 271.57 22.9975C271.89 24.8999 272.21 26.9608 272.529 29.1803C274.981 27.6478 277.539 26.1153 280.204 24.5828C282.923 22.9975 285.454 21.7292 287.799 20.778C288.012 20.7252 288.279 20.7252 288.599 20.778C288.972 20.778 289.345 20.8573 289.718 21.0158C290.091 21.1215 290.411 21.28 290.677 21.4914C290.944 21.7028 291.13 21.967 291.237 22.2841C291.344 22.654 291.264 23.156 290.997 23.7901C290.731 24.3714 290.438 24.7149 290.118 24.8206C289.478 25.1905 288.625 25.6925 287.559 26.3267C286.547 26.908 285.454 27.5421 284.282 28.2291C283.162 28.9161 282.043 29.603 280.924 30.29C279.858 30.977 278.952 31.5583 278.206 32.0339C281.244 33.672 284.202 35.0724 287.08 36.235C290.011 37.3976 293.102 38.3488 296.354 39.0886C296.673 39.1414 296.993 39.3528 297.313 39.7227C297.686 40.0398 297.979 40.4361 298.192 40.9117C298.406 41.3873 298.512 41.8629 298.512 42.3385C298.566 42.8141 298.459 43.2369 298.192 43.6068C297.873 44.0295 297.42 44.2938 296.833 44.3995C296.3 44.4523 295.741 44.4259 295.154 44.3202C291.104 43.369 287.4 42.2064 284.042 40.8325C280.684 39.4057 277.166 37.6882 273.489 35.6801C273.755 37.9524 273.995 40.304 274.208 42.7349C274.475 45.1657 274.715 47.7286 274.928 50.4237C274.928 51.005 274.688 51.3485 274.208 51.4542C273.729 51.507 273.196 51.4806 272.609 51.3749C272.023 51.2692 271.49 51.0843 271.01 50.82C270.531 50.5558 270.238 50.2916 270.131 50.0274C269.811 47.5965 269.465 45.0336 269.092 42.3385C268.772 39.6435 268.399 36.922 267.972 34.1741C267.546 31.3733 267.093 28.6254 266.613 25.9303C266.134 23.1824 265.654 20.5666 265.174 18.083C265.068 17.5017 265.201 16.8411 265.574 16.1013C265.947 15.3086 266.64 14.8594 267.653 14.7538C268.026 14.7538 268.372 14.8594 268.692 15.0708C269.065 15.2294 269.385 15.4672 269.651 15.7842C269.971 16.0484 270.211 16.3391 270.371 16.6562C270.531 16.9204 270.637 17.1582 270.691 17.3696Z" fill="#E63946"/>
<path d="M16.3384 62.0965L16.0491 62.0517C15.9868 62.0326 15.8935 62.0039 15.8418 61.9948C15.8109 61.9955 15.8416 61.9845 15.8315 61.995C15.8739 62.0455 15.7363 61.884 15.62 61.7528C15.5034 61.6114 15.3867 61.4597 15.2591 61.2876C15.0148 60.9638 14.7697 60.6092 14.5347 60.244C14.0547 59.5242 13.5842 58.7732 13.1343 58.0218C12.2343 56.5087 11.3853 54.9738 10.6082 53.4372C9.83145 51.9109 9.13675 50.3724 8.59784 48.8921C8.33389 48.1672 8.12067 47.4103 8.046 46.8561C8.02231 46.7228 8.02303 46.7537 8.02231 46.7228C8.02183 46.7022 8.02135 46.6816 8.02088 46.661C8.0204 46.6405 8.0405 46.6194 8.0606 46.5983L8.09052 46.5565L8.29201 46.3665C10.4266 44.2989 12.8525 42.8011 15.2242 41.634C17.6275 40.497 19.9981 39.7212 22.2193 39.1651C26.6625 38.0837 30.4356 37.8518 33.0383 37.7604C35.6415 37.6895 37.095 37.769 37.095 37.769C40.423 37.8769 42.1044 38.0129 42.1396 37.7546C42.1855 37.5168 40.5642 36.8647 37.1962 36.3664C37.1962 36.3664 36.8344 36.3028 36.1325 36.2264C35.4304 36.1398 34.3983 36.03 33.0577 35.9376C30.3873 35.7732 26.4928 35.6578 21.7237 36.4482C19.3448 36.8639 16.7553 37.5213 14.0624 38.6032C11.4013 39.7255 8.60551 41.2525 6.06361 43.5149L5.82143 43.7264C5.70058 43.8425 5.55939 43.9693 5.42873 44.1062C5.30836 44.2429 5.1564 44.3494 5.07839 44.5365C4.97932 44.7035 4.84866 44.8404 4.79122 45.0271C4.63472 45.3808 4.56149 45.7737 4.50884 46.1662C4.47653 46.5478 4.47701 47.0111 4.51458 47.2985C4.63375 48.4386 4.89172 49.3489 5.18032 50.2482C5.76758 52.0363 6.48597 53.7081 7.27615 55.3679C8.06633 57.0277 8.92783 58.655 9.87164 60.2804C10.3436 61.093 10.836 61.9053 11.3697 62.7165C11.6365 63.1221 11.9136 63.5275 12.2116 63.9427C12.3604 64.1451 12.5198 64.3577 12.6895 64.5699C12.8697 64.7922 13.0285 64.9842 13.3973 65.3462C13.5959 65.4754 13.7948 65.615 14.0042 65.7645C14.233 65.8622 14.4828 65.9799 14.701 66.0675C14.8875 66.1146 15.0844 66.1718 15.2708 66.219C15.4362 66.246 15.6118 66.2728 15.7877 66.3099C16.8828 66.4698 17.8297 66.458 18.7764 66.436C19.7229 66.4037 20.6375 66.331 21.5413 66.2379C23.349 66.0517 25.1132 65.7636 26.835 65.425C30.2784 64.7375 33.5623 63.8374 36.6534 62.6124C38.1936 61.9898 39.7015 61.3061 41.1215 60.3876L41.659 60.0354L42.2156 59.6209C42.3781 59.5245 42.6387 59.2198 42.8393 58.9887C42.9393 58.8628 43.0496 58.7367 43.1393 58.611L43.3372 58.2667C43.8814 57.3171 44.0779 56.4683 44.3055 55.629C44.6891 53.9728 44.8178 52.4255 44.9069 50.9408C44.9856 49.4564 44.994 48.0457 44.9523 46.698C44.9365 46.0188 44.9006 45.3607 44.8547 44.7132L44.8126 44.2302C44.7875 44.0352 44.7726 43.8399 44.7475 43.6449C44.7051 43.1517 44.602 42.7011 44.4072 42.2938C44.1717 41.908 43.8255 41.6278 43.45 41.4203C43.0846 41.2023 42.6481 41.0271 42.4097 40.9606C41.8495 40.778 41.3218 40.6667 40.8152 40.5756C38.8096 40.2207 37.1098 40.1778 35.7192 40.1484C34.3289 40.1293 33.2489 40.175 32.5087 40.2231C31.7788 40.2709 31.3885 40.3109 31.3885 40.3109C27.9775 40.6167 26.3392 41.4476 26.427 41.6823C26.4947 41.9381 28.1247 41.6326 31.4419 41.7201C31.4419 41.7201 31.8128 41.7321 32.5341 41.7565C33.2451 41.7812 34.2968 41.8494 35.6386 41.9932C36.9703 42.1476 38.6225 42.3562 40.4043 42.8296C40.8497 42.9428 41.2958 43.0868 41.7117 43.2625C41.9716 43.3697 42.0134 43.3996 42.1077 43.4695C42.2018 43.5291 42.2858 43.5992 42.3398 43.7112C42.3836 43.8234 42.3659 43.9474 42.3686 44.0606C42.3745 44.3178 42.3805 44.5751 42.3867 44.8426C42.3903 45.4397 42.3844 46.0679 42.3683 46.7066C42.326 47.9842 42.2436 49.3143 42.09 50.6769C41.9364 52.0395 41.7322 53.4444 41.3611 54.7503C41.1694 55.3622 40.9483 56.0366 40.6788 56.4032L40.5898 56.5597C40.5596 56.5913 40.5393 56.6021 40.5192 56.6231C40.4584 56.6657 40.5005 56.7059 40.338 56.8024L39.963 57.0582L39.5263 57.3154C38.348 58.0018 36.961 58.5694 35.5314 59.0762C32.6513 60.0801 29.4875 60.8332 26.2066 61.4243C24.5659 61.7095 22.8932 61.944 21.2082 62.0965C20.3659 62.1778 19.5228 62.2283 18.6893 62.2477C17.8752 62.2152 17.0204 62.2041 16.3384 62.0965Z" fill="#C52943"/>
<path d="M28.5611 15.6876C28.9763 15.8323 29.3808 15.9568 29.7852 16.0812C30.1891 16.1851 30.6036 16.299 31.0076 16.4029C31.411 16.4861 31.8145 16.5694 32.218 16.6527C32.508 16.7283 32.7877 16.8042 33.0675 16.88C34.1051 17.2265 34.9032 17.8978 35.5024 18.8722C36.1016 19.8467 36.4699 21.0736 36.6941 22.3039C36.8011 22.9191 36.8772 23.5351 36.9222 24.1415L36.9248 24.2547L36.9301 24.4811C36.9337 24.6354 36.9373 24.7898 36.9306 24.9444C36.9272 25.243 36.9136 25.5419 36.9102 25.8406C36.8727 26.4386 36.8346 27.016 36.8069 27.5932C37.7758 27.6428 38.7438 27.6512 39.5907 27.7653C39.8695 27.8 40.138 27.8349 40.4168 27.8696C40.6338 27.9058 40.8511 27.9522 41.0579 27.9886C41.8959 28.1647 42.6631 28.394 43.2985 28.7086C43.9338 29.0233 44.4368 29.4029 44.786 29.8066C45.1251 30.2208 45.2797 30.6702 45.4051 31.1924C45.5932 32.197 45.3862 33.0358 45.193 33.5859C44.9896 34.1363 44.8315 34.418 44.8315 34.418C44.3873 35.2417 43.9479 35.8284 43.6589 36.2367C43.3698 36.645 43.2312 36.885 43.2954 36.9864C43.3597 37.0982 43.6368 37.0609 44.0944 36.8134C44.5519 36.566 45.2 36.0979 45.8904 35.2376C45.8904 35.2376 46.1412 34.9538 46.5068 34.2967C46.8521 33.6503 47.3511 32.5268 47.2836 30.9531C47.2255 30.2235 47.0484 29.2495 46.5243 28.4071C46.0007 27.5854 45.2742 26.8918 44.4481 26.3448C43.622 25.7977 42.6964 25.3971 41.721 25.0698C41.4721 24.9932 41.2232 24.9166 40.9743 24.84L40.5912 24.746L40.3945 24.6991C40.3634 24.6895 40.384 24.689 40.3529 24.6795C40.249 24.6407 40.1452 24.6019 40.0413 24.5632C40.0602 24.4907 40.0789 24.4079 40.0978 24.3353L40.116 24.232C40.1155 24.2114 40.1255 24.2009 40.1253 24.1906C40.1251 24.1803 40.1253 24.1906 40.1351 24.1697L40.1423 24.0357C40.1562 23.3044 40.1179 22.5434 40.0377 21.7525C39.8673 20.1813 39.5084 18.4702 38.6148 16.7922C38.3583 16.3864 38.1221 15.9697 37.8246 15.5751C37.497 15.2121 37.1991 14.7969 36.821 14.4762C36.4331 14.1764 36.0538 13.8042 35.6161 13.5776C35.1786 13.3613 34.7393 13.0626 34.2729 12.9293C33.8268 12.7853 33.3082 12.6223 32.9045 12.5287C32.5525 12.4443 32.2007 12.3701 31.8384 12.2858C31.4862 12.1911 31.1442 12.0961 30.7919 12.0013C30.4495 11.8857 30.1073 11.7804 29.7649 11.6648C28 11.0367 26.3942 10.168 25.2968 9.01981C24.7481 8.44571 24.3216 7.8173 24.017 7.11398C23.8648 6.76747 23.743 6.39965 23.6516 6.01054C23.5956 5.81623 23.5602 5.62143 23.5245 5.41635L23.5003 5.26248L23.4884 5.19068C23.4884 5.19068 23.4747 5.04686 23.4637 5.01623L23.4063 4.31746C23.3637 3.37125 23.3003 2.41523 23.0193 1.8452C22.8892 1.55995 22.7295 1.33716 22.5508 1.17658L22.256 0.895159C22.1502 0.77407 21.9846 0.736739 21.8293 0.699168C21.2688 0.506287 20.7249 0.58071 20.1338 0.841551C19.5523 1.07128 18.9557 1.53817 18.4005 2.01438C18.1287 2.2781 17.8563 2.52123 17.6053 2.79475L17.4246 2.99457L17.3143 3.12069C17.2339 3.20492 17.1638 3.28892 17.0937 3.37291C16.8031 3.71943 16.5435 4.06522 16.2941 4.41078C15.7851 5.10213 15.3587 5.80186 14.9729 6.48005C13.4201 9.21362 12.7393 11.8137 12.5966 13.6496C12.515 14.5678 12.5626 15.2874 12.605 15.7806C12.6677 16.2631 12.7046 16.5196 12.7046 16.5196C13.1482 18.7743 14.031 19.5466 14.1827 19.4298C14.4268 19.3006 14.0329 18.3008 13.9985 16.3763C13.9985 16.3763 14.0037 16.1599 14.0147 15.7478C14.0463 15.3353 14.094 14.7267 14.2823 13.9708C14.6279 12.4493 15.4946 10.3185 17.1109 8.09823C17.5098 7.54328 17.9499 6.98738 18.4417 6.44057C18.6824 6.16728 18.944 5.90381 19.2055 5.64033C19.2658 5.57716 19.3364 5.51374 19.407 5.45032L19.5078 5.35532L19.5382 5.33402C19.5786 5.30219 19.6195 5.29095 19.6499 5.26965C19.7923 5.19427 19.9146 5.13995 20.029 5.18877C20.0917 5.22849 20.0536 5.36322 20.0551 5.42496L20.0187 5.63172L20.0094 5.67312C20.0101 5.70399 19.9976 5.61162 20.0096 5.68341L20.0223 5.78607L20.0479 6.00168C20.0854 6.28909 20.1233 6.58678 20.1817 6.884C20.2881 7.47867 20.4566 8.0822 20.6763 8.67424C21.1056 9.86885 21.7907 10.9957 22.636 11.9233C24.3063 13.7994 26.4428 14.9132 28.5611 15.6876Z" fill="#C52943"/>
<path d="M0.799399 35.411C0.823328 36.4401 1.03152 37.4236 1.37229 38.3526C1.5477 38.8118 1.75398 39.2703 2.02152 39.7068C2.09642 39.8286 2.1395 39.91 2.24575 40.0516C2.36253 40.2034 2.46902 40.3553 2.59585 40.4965C2.73273 40.6272 2.85957 40.7684 2.99621 40.8887C3.14267 40.9883 3.27955 41.119 3.43581 41.1977C4.03048 41.5339 4.76491 41.6816 5.3414 41.2357C5.62545 41.0541 5.90951 40.8725 6.19381 40.7011L6.60852 40.3826C7.14384 39.9377 7.71171 39.5642 8.25901 39.1911C10.4585 37.6986 12.6266 36.6289 14.5243 35.8847C16.4219 35.1404 18.0286 34.7221 19.1555 34.4797C20.2824 34.2373 20.929 34.1502 20.929 34.1502C22.3345 33.9322 23.0526 33.8228 23.0686 33.6268C23.0849 33.4411 22.3577 33.1595 20.8838 33.0908C20.8838 33.0908 20.2135 33.0446 19.0103 33.1035C17.807 33.1623 16.0709 33.3262 13.9727 33.8589C11.8845 34.3811 9.44477 35.2821 6.956 36.7299C6.33643 37.0943 5.69629 37.4593 5.08918 37.9161L4.62325 38.2461C4.56247 38.2887 4.59262 38.2571 4.58257 38.2676C4.57228 38.2679 4.55146 38.2581 4.55098 38.2375C4.55074 38.2272 4.55074 38.2272 4.5505 38.2169L4.53973 38.1966L4.45382 38.0441C4.3246 37.8 4.19465 37.5251 4.08481 37.229C3.88571 36.6365 3.74692 35.9808 3.74237 35.3426C3.70576 34.2109 4.00106 33.1848 4.58976 32.3783C4.87884 31.9701 5.25167 31.6217 5.6561 31.3034L5.73722 31.25L5.90976 31.143C6.04162 31.0576 6.16295 30.9621 6.31586 30.8968C6.60088 30.7563 6.88589 30.6159 7.16061 30.4756C7.7 30.2057 8.23963 29.9461 8.75869 29.6869C7.95534 28.7892 6.96463 27.8033 6.54513 27.0306C6.30941 26.6345 6.13544 26.2371 5.99233 25.8389C5.73699 25.0417 5.70852 24.2599 5.89733 23.5245C6.08614 22.7892 6.47214 22.1213 6.93185 21.5237C7.14076 21.21 7.40328 20.9877 7.62368 20.7252C7.87662 20.5339 8.1078 20.2918 8.3617 20.1417C9.35506 19.47 10.3288 19.2826 11.0072 19.236C11.6856 19.1893 12.0575 19.2424 12.0575 19.2424C13.4194 19.3652 14.1151 19.6167 14.1931 19.4296C14.2721 19.2836 13.7013 18.6482 12.2186 18.1988C12.2186 18.1988 11.8137 18.0538 11.0189 17.9693C10.2345 17.8846 8.99921 17.8927 7.59425 18.574C7.23744 18.7265 6.9139 18.9811 6.5382 19.206C6.21537 19.4915 5.84038 19.7473 5.53981 20.1044C4.90637 20.7575 4.24685 21.617 3.82041 22.7595C3.39372 23.8916 3.31307 25.2937 3.63183 26.6041C3.80125 27.2488 4.02189 27.882 4.33418 28.4719L4.35596 28.5229L4.3562 28.5332L4.36697 28.5535L4.37797 28.5842L4.38922 28.6251L4.40095 28.6866C4.38061 28.6973 4.33945 28.6983 4.31911 28.7091L4.28824 28.7098C4.27795 28.71 4.27794 28.71 4.27794 28.71C4.26789 28.7206 4.29805 28.689 4.24732 28.721L4.12551 28.7959C3.49709 29.2224 2.89165 29.7512 2.37188 30.4223C1.29022 31.7241 0.726653 33.611 0.799399 35.411Z" fill="#C52943"/>
<path d="M27.6068 49.912C27.0528 46.8979 25.9565 44.4731 25.9565 44.4731C25.6526 43.8006 25.3657 43.8588 25.3214 44.6114C25.3214 44.6114 25.1575 47.3024 25.7012 50.3167C26.2552 53.3307 27.3514 55.7556 27.3514 55.7556C27.6553 56.428 27.942 56.3596 27.9865 55.6173C27.9868 55.6276 28.1505 52.9263 27.6068 49.912Z" fill="#C52943"/>
<path d="M19.2493 52.6803C18.0226 50.4026 16.4207 48.8131 16.4207 48.8131C15.978 48.3704 15.7244 48.5307 15.8627 49.1658C15.8627 49.1658 16.3485 51.4608 17.5751 53.7385C18.8018 56.0162 20.4037 57.6056 20.4037 57.6056C20.8464 58.0484 21.1001 57.888 20.9618 57.2529C20.9618 57.2529 20.4762 54.9683 19.2493 52.6803Z" fill="#C52943"/>
<path d="M35.8931 50.2856C35.9733 47.9775 35.3916 45.9834 35.3916 45.9834C35.2346 45.431 34.9359 45.4277 34.7423 45.9573C34.7423 45.9573 34.0254 47.8889 33.9555 50.1968C33.8753 52.5049 34.4571 54.499 34.4571 54.499C34.614 55.0513 34.9129 55.065 35.1063 54.5251C35.1063 54.5251 35.813 52.5937 35.8931 50.2856Z" fill="#C52943"/>
<path d="M13.4936 25.2114C13.6693 25.6809 13.2921 26.2868 12.6501 26.5695C12.008 26.8521 11.3353 26.703 11.1599 26.2438C10.9843 25.7742 11.3614 25.1683 12.0035 24.8857C12.6455 24.6031 13.3182 24.7522 13.4936 25.2114Z" fill="#C52943"/>
<path d="M21.9027 15.8115C22.0171 16.3031 21.5665 16.8489 20.8912 17.0294C20.2159 17.2098 19.5719 16.9674 19.4575 16.4758C19.3431 15.9843 19.7937 15.4385 20.4691 15.258C21.1444 15.0776 21.7884 15.32 21.9027 15.8115Z" fill="#C52943"/>
<path d="M21.2119 22.8492C21.3145 23.2793 20.9139 23.7622 20.3205 23.9201C19.727 24.0781 19.1661 23.8646 19.0634 23.4346C18.9607 23.0046 19.3613 22.5216 19.9548 22.3637C20.5483 22.2058 21.1092 22.4192 21.2119 22.8492Z" fill="#C52943"/>
<path d="M32.7385 21.3251C32.7332 21.9842 31.9832 22.4958 31.0767 22.4757C30.1702 22.4556 29.4368 21.9064 29.4526 21.2574C29.4578 20.5984 30.2078 20.0867 31.1143 20.1068C32.0206 20.1166 32.754 20.6658 32.7385 21.3251Z" fill="#C52943"/>
<path d="M27.8811 27.6155C27.9658 28.1592 27.4225 28.7072 26.674 28.8378C25.9255 28.9685 25.2485 28.6342 25.1637 28.0905C25.079 27.5468 25.6223 26.9988 26.3708 26.8681C27.1296 26.7372 27.8066 27.0715 27.8811 27.6155Z" fill="#C52943"/>
</svg>
